<svg width="250" height="50" viewBox="0 0 300 50" fill="none" xmlns="http://www.w3.org/2000/svg" xmlns:xlink="http://www.w3.org/1999/xlink">
<!-- left < -->
<a href="https://serp.co" target="_blank">
<g transform="translate(10, 0)">
  <path fill="black" stroke="black" stroke-width="1.5" d="M21.3495 0H35.2815C26.052 11.2214 16.8345 22.4553 7.614 33.686C10.494 32.0339 13.368 30.3708 16.2495 28.7218C22.5945 36.4781 28.9305 44.2422 35.277 52H21.348C14.2245 43.3427 7.1145 34.6745 0 26.0094V25.9922C7.1145 17.3271 14.2245 8.6573 21.3495 0Z"/></g>
</a>

  <!-- right > -->
  <a href="https://serp.ai" target="_blank">
  <g transform="translate(-10, 0)">
  <path fill="black" stroke="black" stroke-width="1.5" d="M264.724 0H278.653C285.775 8.65886 292.887 17.3255 300 25.9922V26.0078C292.886 34.6729 285.776 43.3427 278.652 52H264.719C273.948 40.7786 283.164 29.5447 292.383 18.314C289.503 19.9646 286.631 21.6323 283.749 23.2782C277.407 15.5188 271.068 7.75628 264.724 0Z" />
  </g>
  </a>
  <!-- S -->
  <path fill="black" stroke="black" stroke-width="1.5" d="M73.7955 6.71785C80.223 6.14163 87.0345 7.24566 92.427 11.1293C90.8865 13.0063 89.349 14.8848 87.804 16.7571C83.64 14.4242 78.7485 13.6231 74.0775 14.2711C72.5445 14.5288 70.908 14.9363 69.765 16.106C68.9145 16.9586 68.727 18.364 69.189 19.4727C69.531 20.2582 70.293 20.7188 71.0385 21.0061C72.4965 21.5589 74.046 21.7619 75.5775 21.9665C79.062 22.3569 82.5885 22.5849 85.989 23.5327C88.3455 24.1933 90.771 25.1958 92.382 27.1899C93.8535 28.9935 94.3215 31.4296 94.341 33.7376C94.3995 36.1611 93.8505 38.669 92.4345 40.6318C90.9675 42.704 88.7295 44.0298 86.4135 44.8184C83.5605 45.7834 80.541 46.0817 77.5545 46.1145C73.5045 46.1504 69.4155 45.6538 65.571 44.2843C63.174 43.438 60.8925 42.2496 58.794 40.7802C60.3975 38.822 62.001 36.8654 63.612 34.9134C68.82 38.0568 75.0585 39.2748 81.009 38.3364C82.419 38.0693 83.91 37.6789 84.9735 36.6171C85.8645 35.7504 86.0745 34.3013 85.6245 33.1504C85.3005 32.3603 84.5475 31.8871 83.805 31.5966C82.3815 31.0423 80.862 30.8377 79.362 30.6332C75.9285 30.2365 72.4545 30.0257 69.0945 29.1263C66.6135 28.461 64.0395 27.4445 62.3625 25.3285C60.678 23.2001 60.342 20.2925 60.483 17.6285C60.6315 14.8473 61.9005 12.1505 63.9765 10.3813C66.7155 8.0077 70.314 7.05983 73.7955 6.71785Z" />
  <!-- E -->
  <path fill="black" stroke="black" stroke-width="1.5" d="M110.224 7.25343C121.17 7.24719 132.115 7.25187 143.061 7.25187C143.064 9.76286 143.062 12.2739 143.062 14.7848C134.898 14.788 126.733 14.7848 118.569 14.7864C118.561 17.3458 118.567 19.9052 118.566 22.4646C125.574 22.4693 132.583 22.4646 139.591 22.4677C139.597 24.9756 139.59 27.4835 139.596 29.9913C132.586 30.0179 125.575 29.9913 118.566 30.0038C118.566 32.6366 118.564 35.271 118.566 37.9053C126.732 37.91 134.896 37.9038 143.062 37.9084C143.064 40.4194 143.062 42.9289 143.062 45.4399C132.12 45.443 121.176 45.443 110.232 45.4399C110.226 32.7116 110.239 19.9833 110.224 7.25343Z" />
  <!-- R -->
  <path fill="black" stroke="black" stroke-width="1.5" d="M159.321 7.25187C166.614 7.25187 173.907 7.24875 181.2 7.25344C183.899 7.28467 186.681 7.73596 189.042 9.17103C190.794 10.2204 192.191 11.8835 192.957 13.8307C193.805 15.9435 194.004 18.2812 193.874 20.5486C193.736 22.8144 193.134 25.113 191.805 26.9463C190.178 29.2121 187.577 30.5613 184.925 30.9736C182.958 31.3046 180.962 31.4061 178.973 31.417C181.994 32.2322 185.015 33.0582 188.07 33.7313C190.61 37.6305 193.14 41.536 195.675 45.4399C192.399 45.443 189.122 45.4399 185.846 45.4414C182.834 40.7677 179.835 36.083 176.824 31.4061C173.767 31.4092 170.71 31.4045 167.653 31.4092C167.652 36.0861 167.653 40.763 167.653 45.4399C164.875 45.443 162.096 45.4414 159.318 45.4399C159.32 32.71 159.315 19.9802 159.321 7.25187ZM167.655 14.788C167.652 17.8158 167.653 20.8437 167.655 23.8716C171.669 23.8747 175.685 23.8716 179.699 23.8731C181.161 23.8747 182.742 23.7701 183.974 22.8581C184.902 22.1757 185.334 20.9858 185.397 19.8396C185.487 18.4951 185.261 16.9757 184.247 16.0325C183.18 15.0409 181.679 14.8286 180.302 14.7911C176.087 14.7817 171.87 14.7864 167.655 14.788Z" />
  <!-- P -->
  <path fill="black" stroke="black" stroke-width="1.5" d="M210.01 7.25031C216.655 7.25188 223.3 7.25188 229.944 7.25031C232.773 7.21284 235.687 7.5392 238.258 8.84779C240.135 9.79097 241.738 11.3432 242.695 13.2779C243.96 15.8077 244.218 18.7528 243.991 21.5573C243.775 24.148 242.898 26.7605 241.134 28.6546C239.31 30.6488 236.734 31.7012 234.163 32.1276C232.075 32.5039 229.951 32.3977 227.844 32.4118C224.677 32.4133 221.511 32.4102 218.346 32.4133C218.341 36.756 218.344 41.0972 218.344 45.4399C215.566 45.443 212.787 45.4414 210.009 45.4399C210.01 32.71 210.006 19.9802 210.01 7.25031ZM218.346 14.788C218.343 18.15 218.343 21.5136 218.346 24.8757C222.213 24.8757 226.081 24.8819 229.948 24.8725C231.415 24.8226 233.002 24.6024 234.162 23.5811C235.161 22.7051 235.507 21.2903 235.516 19.9802C235.546 18.6122 235.258 17.11 234.24 16.1575C233.037 15.0394 231.339 14.8286 229.789 14.7895C225.975 14.7817 222.16 14.7864 218.346 14.788Z"  />
</svg>
